<?xml version="1.0" encoding="UTF-8"?><svg xmlns="http://www.w3.org/2000/svg" xmlns:xlink="http://www.w3.org/1999/xlink" height="117.5" preserveAspectRatio="xMidYMid meet" version="1.0" viewBox="0.0 0.0 124.0 117.5" width="124.0" zoomAndPan="magnify"><g><g><g><g fill="#ef9d26" id="change1_1"><path d="M10.99,106.24c1.2,4.1,4.97,6.93,9.25,6.93v4.35h83.52v-4.35c4.28,0,8.05-2.83,9.25-6.93 l0.98-3.36H10.01L10.99,106.24z" fill="inherit"/><path d="M124 56.81L100 56.81 94.06 43.73 96 42 93.27 42 90 34.81 86.73 42 72 42 62 20 52 42 37.27 42 34 34.81 30.73 42 28 42 29.94 43.73 24 56.81 0 56.81 19 73.81 10 96.81 34 83.81 58 96.81 49.72 75.65 62 69 74.28 75.65 66 96.81 90 83.81 114 96.81 105 73.81z" fill="inherit"/></g><g id="change2_1"><path d="M20.24 113.17H103.75999999999999V117.52H20.24z" fill="#4d727a"/></g><g id="change3_1"><path d="M113.99,102.88l-0.98,3.36c-1.2,4.1-4.97,6.93-9.25,6.93H20.24c-4.28,0-8.05-2.83-9.25-6.93 l-0.98-3.36H113.99z" fill="#93b2b8"/></g><g id="change4_1"><path d="M93.27 42L96 42 94.06 43.73 77 59 86 82 74.28 75.65 62 69 49.72 75.65 38 82 47 59 29.94 43.73 28 42 30.73 42 37.27 42 52 42 62 20 72 42 86.73 42z" fill="#ffc05a"/></g></g><g><g id="change5_2"><path d="M62,16.27c-0.553,0-1-0.448-1-1V1c0-0.552,0.447-1,1-1s1,0.448,1,1v14.27 C63,15.822,62.553,16.27,62,16.27z" fill="#f9b132"/></g><g id="change5_3"><path d="M36.68,27.81c-0.274,0-0.547-0.112-0.744-0.333l-10.83-12.08 c-0.369-0.411-0.335-1.043,0.076-1.412c0.412-0.368,1.044-0.334,1.412,0.077l10.83,12.08c0.369,0.411,0.335,1.043-0.076,1.412 C37.156,27.725,36.918,27.81,36.68,27.81z" fill="#f9b132"/></g><g id="change5_1"><path d="M87.32,27.81c-0.238,0-0.477-0.084-0.668-0.255c-0.411-0.369-0.445-1.001-0.076-1.412 l10.83-12.08c0.369-0.412,1.001-0.444,1.412-0.077c0.411,0.369,0.445,1.001,0.076,1.412l-10.83,12.08 C87.867,27.697,87.594,27.81,87.32,27.81z" fill="#f9b132"/></g></g></g></g></svg>